<svg width="116" height="51" viewBox="0 0 116 51" fill="none" xmlns="http://www.w3.org/2000/svg">
<path d="M58.3413 8.17271C40.1425 8.17271 16.3332 18.8254 6.85162 35.0062C6.31711 35.9182 3.87545 39.4805 4.45446 40.7458C4.95502 41.8394 7.14246 41.3602 7.24921 41.6355C7.60702 42.5588 8.84113 42.6404 7.21683 44.0395C6.22561 44.8934 3.23765 44.5182 2.29407 43.9853C-4.56443 40.1115 5.82487 26.0379 9.13149 22.4058C21.7115 8.58768 43.7521 -0.721097 62.3727 0.043877C71.9868 0.438864 82.2734 4.5735 88.4229 12.1984C94.8717 20.1945 93.5648 27.9166 92.0854 37.2653C96.1787 36.5219 101.954 28.804 105.211 26.0387C107.398 24.182 116.846 17.635 115.939 26.1398C115.475 30.4903 105.696 35.0858 102.592 37.4001C97.6073 41.1161 92.2755 44.562 87.429 48.3388C85.4065 49.9148 85.6654 51.5686 82.3819 50.81C79.4126 50.1238 78.1862 46.7664 76.7959 44.4908C73.7148 39.4479 69.9339 34.5408 67.3654 29.2111C64.5668 23.4043 67.1915 19.453 72.4601 24.4477C74.4523 26.3362 80.046 36.8175 82.267 36.6027C83.6891 36.4653 83.7719 28.2013 83.7839 27.7749C83.9048 23.4382 83.2005 20.2898 80.4183 16.9247C74.6238 9.91621 66.7397 9.00876 58.3413 8.17271C60.5229 8.38986 56.8927 8.17271 58.3413 8.17271Z" fill="#222221"/>
</svg>
